<svg xmlns="http://www.w3.org/2000/svg" width="216" height="72" viewBox="0,0,216,72"><path fill="#CB1776" d="M155 37L154 36L150 31L151 37L155 26L161 29L163 29L160 19Z"/><path fill="#3C6322" d="M85 40L82 34L79 39L79 42L74 48L74 46L72 45L80 42L78 47L80 47L83 51Z"/><path fill="#175770" d="M114 25L116 28L115 22L116 26L126 19L120 19L126 18L128 14L132 16L128 15L132 20Z"/><path fill="#9507AB" d="M5 62L15 7L19 8L38 58L30 60L27 46L9 40L9 57L4 62Z"/><path fill="#353379" d="M165 32L166 35L155 40L154 38L151 38L146 38L141 31L147 34L146 33L151 23Z"/><path fill="#811251" d="M103 49L107 50L101 48L105 49L107 49L100 48L105 45L107 47L110 42L107 42L106 46L105 38L103 40L104 40L105 35L105 37L106 35Z"/><path fill="#9714A9" d="M100 28L100 29L99 33L95 29L89 30Z"/><path fill="#5A2A60" d="M205 26L196 27L202 24L200 24L199 15L202 21L203 19L203 26Z"/><path fill="#454198" d="M21 35L16 16L14 36L24 34Z"/><path fill="#977CC2" d="M105 10L108 1L112 3L110 4L111 3L119 -7L118 -2L114 5L114 -4Z"/><path fill="#A88310" d="M163 6L159 8L166 15L164 8L157 10L154 3L162 1L165 6L169 2L159 -3L158 4L168 5L173 0Z"/><path fill="#44A2A3" d="M155 59L162 63L152 61L152 69L154 63L162 63L159 65Z"/><path fill="#74A123" d="M7 44L5 40L10 47L16 50L21 56L24 49L24 43Z"/><path fill="#410B90" d="M101 26L99 22L100 32L95 30L100 27L98 28L98 25L92 25Z"/><path fill="#3A388B" d="M180 17L179 25L176 25L174 24L168 26L176 26L171 23L168 27L166 26L164 35L174 30L173 31L173 37L172 27Z"/><path fill="#191554" d="M204 58L195 59L199 16Q195 16 191 18L188 18L188 15Q194 11 196 8L200 8L200 5L206 62Z"/><path fill="#24C069" d="M181 25L178 30L177 25L182 18L180 21L175 26L177 27L183 32L178 25L178 27L182 28L184 24L181 28Z"/><path fill="#03714A" d="M115 58L111 8L117 10L121 32L135 6L142 6L127 32L140 56L138 60L122 37L118 43L120 58L109 61Z"/><path fill="#C92528" d="Z"/><path fill="#2891C9" d="M12 20L7 30L9 23L3 30L12 25L10 30L19 20L23 16L17 17L21 23L23 20L29 19L31 22L36 17L32 20Z"/><path fill="#5726A0" d="M118 32L115 31L107 35L112 23L114 25L114 25L104 25L109 19L109 23L114 28L106 24L114 27L109 22L102 21Z"/><path fill="#948B55" d="M150 70L151 72L152 78L148 80L143 81L148 79L144 87L153 84L145 84L150 76L153 78L149 73L140 70L143 71L132 68Z"/><path fill="#85550C" d="M118 52L113 47L116 46L116 43L114 48L111 54L104 54L108 51L101 52L94 50L92 57L90 57L98 51L99 50L101 45L106 48L98 50Z"/><path fill="#142357" d="M94 27L87 29L92 27L92 21L89 25L86 25L91 31L89 22L92 26L91 28L97 24Z"/><path fill="#B8A045" d="M108 38L106 44L103 36L101 39L105 36L103 33L102 36L104 37L105 41Z"/><path fill="#A9269C" d="M76 60L89 8L96 10L104 56L97 62L99 44L86 46L80 60L70 61Z"/><path fill="#233677" d="M56 65L54 63L60 59L57 63L55 65L58 59L60 62Z"/><path fill="#8C0BA8" d="M32 6L34 7L29 9L31 0L36 3L37 2L45 6L42 1L50 6L50 9L44 12L48 10L46 7L46 6L45 8L45 9L40 14Z"/><path fill="#3B0C30" d="M108 56L107 48L109 49L115 47L114 47L115 52Z"/><path fill="#946C88" d="M122 61L127 62L124 53L116 59L113 54Z"/><path fill="#A02342" d="M68 59L66 54L68 51L61 52L67 50L56 51L63 57L62 58L63 57L60 55L58 50L54 51L54 48Z"/><path fill="#262905" d="M44 30L48 41L46 38L49 38L57 39L57 37L53 43L44 33L43 36L37 36L36 38L38 40L34 41L31 39L28 38L33 37Z"/><path fill="#747552" d="Z"/><path fill="#10C34A" d="M199 27L204 26L199 27L203 23L203 23L201 27L202 24L199 20L205 18L205 20L205 18L205 20L212 21L203 30Z"/><path fill="#069A45" d="M152 62L149 9L152 6L151 31L171 28L168 11L176 7L172 60L169 56L170 33L156 35L156 64L151 56Z"/><path fill="#695A12" d="M138 58L137 61L143 54L138 52L137 52Z"/><path fill="#1617B8" d="M97 39L87 17L82 35L98 35Z"/><path fill="#4B5644" d="M177 67L179 66L181 63L172 63L175 61L176 70L173 69L183 73L185 73L182 71Z"/><path fill="#B53937" d="M65 43L72 46Q67 65 54 63L57 65Q46 62 46 54L46 50Q42 48 43 32L36 36Q36 20 41 13L44 15Q43 9 54 5L51 9Q66 5 69 26L67 23L60 27Q58 12 50 12L52 16Q48 11 42 37L49 33Q45 52 56 56L51 56Q60 56 66 44L62 45Z"/><path fill="#102859" d="M160 40L159 46L160 43L154 39L160 40L159 39L156 37L146 40L147 38Z"/></svg>
