<svg xmlns="http://www.w3.org/2000/svg" width="216" height="72" viewBox="0,0,216,72"><path fill="#8C333C" d="M14 56L8 57L4 50L4 51L3 44L-5 47L-10 48L-11 54L-7 50Z"/><path fill="#7783CB" d="Z"/><path fill="#466987" d="M111 20L111 19L113 16L113 15L111 21L112 21L108 19L105 22L111 28L105 25L108 17L109 21L109 20L103 24L107 19Z"/><path fill="#902087" d="M50 19L54 16L52 23L52 25L47 31L53 31L48 38L56 35L48 29L50 31L45 35L51 31L46 36Z"/><path fill="#003B9C" d="M207 64L212 64L212 69L208 64L215 66L211 58L211 61L208 62L211 62L213 65L215 69L214 72L212 71L210 72L211 74Z"/><path fill="#93208A" d="Z"/><path fill="#8C2B22" d="M108 58L116 54L115 59L107 66L101 62L102 57L96 58L104 56L102 55L104 49L100 40L106 45L100 48L100 48L100 45L102 45Z"/><path fill="#5A8444" d="M164 20L167 19L166 22L161 21L157 21L152 15L160 17L156 20L162 15L158 25Z"/><path fill="#8164C2" d="M69 33L67 36L69 34L66 34L70 34L68 25L67 25Z"/><path fill="#B6C294" d="M173 26L173 31L171 31L174 23L174 23L174 23L177 23L177 28L181 26L174 18L179 23Z"/><path fill="#32B747" d="M160 61L145 7L154 11L160 52L172 7L180 7L167 57L161 61Z"/><path fill="#95CA67" d="M163 52L169 49L164 47L167 49L165 47L172 44L164 52Z"/><path fill="#708B92" d="M14 50L8 50L11 46L9 41L18 40Z"/><path fill="#2C3443" d="M62 71L62 69L66 63L63 66L67 61L71 62L62 65L64 59L61 69L57 68L61 68L60 66Z"/><path fill="#59C479" d="M132 57L133 49L130 48L141 54L138 57L137 59L139 61L131 54L138 57L141 58L132 61L132 60L138 57Z"/><path fill="#B5279A" d="M203 43L209 39L208 40L206 47L196 44L196 54L203 55L196 49L194 44L193 43L196 46L197 41L199 43L200 35L196 40L197 43L198 41Z"/><path fill="#89A7C7" d="M135 62L139 59L138 54L139 63L127 62L130 63L132 63L130 71L139 74L142 66L133 74L138 74Z"/><path fill="#A6B819" d="M175 51L178 52L182 47L175 50L176 55L178 50L178 54L172 47L172 47L168 49L166 49L163 49L167 51L169 50Z"/><path fill="#4C3491" d="M86 18L81 14L81 58L89 53Q97 54 97 32L95 33Q100 27 92 22L99 22Q95 17 86 14L90 12Z"/><path fill="#099B50" d="M27 54L26 55L23 51L15 52L22 55L15 53L23 49L17 50L19 54L23 59L14 51L13 50Z"/><path fill="#249792" d="M2 68L3 72L1 77L-1 74L-3 72Z"/><path fill="#5B6010" d="M79 49L79 52L79 56L82 57L83 53L77 55L78 60L74 57L73 58L71 67L62 67Z"/><path fill="#69BA05" d="M82 63L82 58L77 53L79 55L86 62L80 66L84 54L85 66L81 62L81 62L70 60L79 63L79 56L81 56L86 57L78 65Z"/><path fill="#0BB8B6" d="M158 21L157 24L158 17L157 14L152 13L150 17Z"/><path fill="#C5432A" d="M88 59L71 59L76 51L80 58L78 18L72 12L73 5L84 6Q92 11 98 12L102 19Q103 18 102 33L108 37Q104 43 104 51L101 56Q96 57 90 63L86 63Z"/><path fill="#698519" d="M84 61L83 55L88 56L86 53L83 56L82 54L82 47L80 48L87 44L84 47Z"/><path fill="#0984C0" d="M27 47L26 9L32 10L31 47Q31 65 15 58L18 58Q5 59 0 47L4 46L10 48Q11 56 14 54L15 52Q19 53 25 49L23 44Z"/><path fill="#58BBCC" d="M95 12L100 17L102 25L101 27L100 31L99 31L93 34L97 29L96 23L93 26L92 32L95 26L94 28L88 27L81 29L79 28Z"/><path fill="#1851A3" d="M101 11L101 9L103 20L95 13L97 9L99 8L95 11L94 5L93 12L87 7L91 11L94 15L94 15L96 14Z"/><path fill="#5763B3" d="M175 70L181 70L185 62L185 67L183 65L181 61L188 61L184 69L184 63L185 67L177 75L182 75L185 73L190 80L187 77Z"/><path fill="#B69672" d="M112 39L116 38L118 35L116 27L122 36L117 34Z"/><path fill="#B24347" d="M130 12L140 11L132 15L135 13L129 8L134 8L129 8L128 8Z"/><path fill="#70614A" d="M115 11L110 11L142 10L141 16L130 12L129 59L123 59L123 16L110 11Z"/><path fill="#AA6498" d="M45 12L41 7L70 12L68 11L49 51L67 55L68 63L39 62L40 53L58 17L38 18Z"/><path fill="#18496B" d="M216 61L207 59L211 50Q204 63 200 57L195 63Q194 58 185 51L187 52Q180 44 182 31L180 38Q185 25 189 13L185 17Q188 7 201 7L196 4Q209 7 213 20L209 25L206 21Q208 11 196 15L201 16Q187 11 186 36L189 32Q189 58 194 55L195 54Q207 55 205 44L205 38L199 44L201 37L211 37L210 61Z"/></svg>
