<svg xmlns="http://www.w3.org/2000/svg" width="216" height="72" viewBox="0,0,216,72"><path fill="#82974B" d="M115 59L117 65L117 68L120 66L109 67L112 65L105 68L105 72L113 67L104 67L116 66L115 68L115 69L113 71L109 69L106 72L109 66Z"/><path fill="#621085" d="M40 61L43 13L50 8L46 32L58 34L65 6L67 7L68 59L63 60L60 40L45 32L46 57L38 61Z"/><path fill="#B89607" d="M29 45L32 46L32 46L32 47L28 46L30 43L32 46L29 45L32 50L31 44L32 49L34 52L38 57L45 64L48 58L46 63Z"/><path fill="#8A158B" d="M205 23L211 32L206 33L204 40L202 33L198 34L199 33L205 31L204 30L200 31L198 35Z"/><path fill="#9954C0" d="M146 42L141 47L140 48L133 51L130 49L125 40L124 38L130 34L127 34L125 33Z"/><path fill="#8BC216" d="Z"/><path fill="#9CC7CA" d="M112 47L116 46L119 50L119 49L121 49L116 44L121 41L126 46Z"/><path fill="#2420B5" d="M13 70L19 70L22 71L18 66L19 66L24 68L22 71L24 69L27 69L22 61L21 60L23 64Z"/><path fill="#2086B7" d="M123 70L122 68L127 70L135 70L133 74L132 78L124 84L120 83L117 86L121 87L120 89L118 87Z"/><path fill="#9429B1" d="M18 11L21 16Q12 16 6 37L6 32Q7 57 20 58L19 56Q23 55 28 38L27 31Q29 10 18 13Z"/><path fill="#B329CA" d="M70 66L72 59L75 67L71 67L67 71L73 65Z"/><path fill="#826BA0" d="M62 23L62 27L71 25L69 22L73 29L69 30L73 22L73 25L76 36L67 36L69 35Z"/><path fill="#55C613" d="M62 36L60 27L63 29L61 31L65 29L63 23L67 17L64 20L69 11L62 18L60 14Z"/><path fill="#7237BC" d="M129 17L127 16L134 9L125 12L127 12L127 10L127 16Z"/><path fill="#21CC21" d="M15 5L16 4Q27 9 26 16L31 17Q31 22 34 38L30 38Q34 48 26 58L32 55Q28 62 17 59L19 59Q10 63 11 56L10 56Q4 49 3 34L5 35Q0 25 10 14L6 17Q12 9 15 6Z"/><path fill="#CCC859" d="M27 69L33 69L36 71L39 71L44 77L42 77L48 71L47 77L45 77L47 80L44 81L50 74L50 83L45 82L45 79L48 85Z"/><path fill="#6AC76A" d="M166 21L160 13L160 14L157 13L152 11L153 17Z"/><path fill="#5B9556" d="M98 21L104 23L101 19L105 24L102 31L106 25L101 24L99 22L103 24L104 22L99 24L96 23L101 20L101 18L101 21Z"/><path fill="#C42830" d="M1 28L2 24L10 27L9 23L3 25L3 23Z"/><path fill="#B9119A" d="M179 34L179 33L181 32L179 30L184 36L185 37L183 31L176 35L175 37L172 37L176 37L174 31L173 40L180 42L173 46L171 43L174 51Z"/><path fill="#384102" d="M170 7L175 13L174 16L172 12L175 14L181 10L182 7L184 8L181 10Z"/><path fill="#1CBA95" d="M108 44L110 46L113 52L115 50L111 51L114 48L104 46L104 49L108 46L118 39L114 42L113 42L116 52L111 52L112 55Z"/><path fill="#03228C" d="M25 5L24 2L34 5L34 7L35 10L36 8L35 11L37 1L37 7L41 11L50 4Z"/><path fill="#30A61A" d="M179 52L179 53L182 55L184 55L175 51L177 51L173 48L176 44L177 50L174 47L174 41L168 38L173 38L170 43L167 36Z"/><path fill="#52AA64" d="M180 1L185 7L181 9L183 13L180 3L184 5L186 7Z"/><path fill="#411862" d="Z"/><path fill="#C78B22" d="M149 47L147 8L151 10L153 47Q156 54 162 54L162 52Q168 56 168 42L170 47L172 6L174 6L178 44Q178 49 173 56L174 59Q168 60 165 59L164 64Q148 63 150 41L152 46Z"/><path fill="#2A75C5" d="M114 70L117 71L120 66L119 59L111 56L110 52L114 60Z"/><path fill="#5B180C" d="M183 58L184 9L187 6L189 57L214 53L211 60L184 59Z"/><path fill="#22BB78" d="M171 57L167 56L172 56L170 58L179 63L178 57L173 57Z"/><path fill="#7952C5" d="M132 61L122 62L121 20Q124 15 113 18L119 24L115 15Q124 13 125 10L125 12L132 7L129 57Z"/><path fill="#120713" d="M124 24L115 16L119 18L118 21L109 17L109 20L109 15L104 8L111 3L110 5L107 4L105 7Z"/><path fill="#43244B" d="M171 51L166 47L171 45L177 43L180 45L173 43L175 37L182 44L183 40L193 44L193 40L183 42Z"/><path fill="#109077" d="M101 61L96 61L102 51Q98 57 93 65L88 59Q79 64 76 51L75 52Q72 48 79 34L75 35Q74 24 79 17L82 14Q84 6 94 9L88 9Q98 11 106 23L105 26L95 22Q95 15 87 10L89 11Q79 10 85 36L82 38Q81 57 90 58L89 53Q96 58 98 42L98 42L88 39L96 35L101 39L104 63Z"/><path fill="#434CA8" d="M49 14L46 16L48 11L48 11L48 9L46 10L51 11L55 9L60 3L52 7L58 9Z"/><path fill="#A53A8B" d="M82 15L80 11L79 7L73 6L81 11L72 12L79 13L75 17L75 14L78 12L83 9L88 6L81 8L79 10L80 17L76 10Z"/></svg>
